<svg version="1.1" xmlns="http://www.w3.org/2000/svg" xmlns:xlink="http://www.w3.org/1999/xlink" width="1268" height="1019"><defs/><g><g transform="translate(-6,-14) scale(1,1)"><rect fill="#C0C0C0" stroke="none" x="487" y="31" width="784" height="999" opacity="0.2"/></g><g transform="translate(-6,-14) scale(1,1)"><rect fill="#ffffff" stroke="none" x="480" y="24" width="784" height="999"/></g><g transform="translate(-6,-14) scale(1,1)"><path fill="none" stroke="#000000" d="M 480 24 L 1264 24 L 1264 1023 L 480 1023 L 480 24 Z Z" stroke-miterlimit="10"/></g><g transform="translate(-6,-14) scale(1,1)"><g><path fill="none" stroke="none"/><text fill="#000000" stroke="none" font-family="Arial" font-size="13px" font-style="normal" font-weight="bold" text-decoration="none" x="820.6982421875" y="43.5">System Boundary</text></g></g><g transform="translate(-6,-14) scale(1,1)"><path fill="#ffffff" stroke="none" d="M 53.09489719460227 369.68 C 53.09489719460227 364.886167936 56.980739519547726 361 61.774169921875 361 C 66.56760032420227 361 70.45344264914773 364.886167936 70.45344264914773 369.68 C 70.45344264914773 374.473832064 66.56760032420227 378.36 61.774169921875 378.36 C 56.980739519547726 378.36 53.09489719460227 374.473832064 53.09489719460227 369.68 Z"/></g><g transform="translate(-6,-14) scale(1,1)"><path fill="none" stroke="#000000" d="M 53.09489719460227 369.68 C 53.09489719460227 364.886167936 56.980739519547726 361 61.774169921875 361 C 66.56760032420227 361 70.45344264914773 364.886167936 70.45344264914773 369.68 C 70.45344264914773 374.473832064 66.56760032420227 378.36 61.774169921875 378.36 C 56.980739519547726 378.36 53.09489719460227 374.473832064 53.09489719460227 369.68 Z" stroke-miterlimit="10"/></g><g transform="translate(-6,-14) scale(1,1)"><path fill="none" stroke="#000000" d="M 61.774169921875 378.36 L 61.774169921875 395.64" stroke-miterlimit="10"/></g><g transform="translate(-6,-14) scale(1,1)"><path fill="none" stroke="#000000" d="M 52.58435174005682 384.84 L 70.96398810369318 384.84" stroke-miterlimit="10"/></g><g transform="translate(-6,-14) scale(1,1)"><path fill="none" stroke="#000000" d="M 61.774169921875 395.64 L 49.010533558238635 413" stroke-miterlimit="10"/></g><g transform="translate(-6,-14) scale(1,1)"><path fill="none" stroke="#000000" d="M 61.774169921875 395.64 L 74.53780628551137 413" stroke-miterlimit="10"/></g><g transform="translate(-6,-14) scale(1,1)"><g><path fill="none" stroke="none"/><text fill="#000000" stroke="none" font-family="Arial" font-size="13px" font-style="normal" font-weight="bold" text-decoration="none" x="24.57373046875" y="433.5">System User</text></g></g><g transform="translate(-6,-14) scale(1,1)"><path fill="#ffffff" stroke="none" d="M 185.59953586647728 585.6800000000001 C 185.59953586647728 580.8861679360001 189.48537819142274 577 194.27880859375 577 C 199.07223899607726 577 202.95808132102272 580.8861679360001 202.95808132102272 585.6800000000001 C 202.95808132102272 590.473832064 199.07223899607726 594.36 194.27880859375 594.36 C 189.48537819142274 594.36 185.59953586647728 590.473832064 185.59953586647728 585.6800000000001 Z"/></g><g transform="translate(-6,-14) scale(1,1)"><path fill="none" stroke="#000000" d="M 185.59953586647728 585.6800000000001 C 185.59953586647728 580.8861679360001 189.48537819142274 577 194.27880859375 577 C 199.07223899607726 577 202.95808132102272 580.8861679360001 202.95808132102272 585.6800000000001 C 202.95808132102272 590.473832064 199.07223899607726 594.36 194.27880859375 594.36 C 189.48537819142274 594.36 185.59953586647728 590.473832064 185.59953586647728 585.6800000000001 Z" stroke-miterlimit="10"/></g><g transform="translate(-6,-14) scale(1,1)"><path fill="none" stroke="#000000" d="M 194.27880859375 594.36 L 194.27880859375 611.64" stroke-miterlimit="10"/></g><g transform="translate(-6,-14) scale(1,1)"><path fill="none" stroke="#000000" d="M 185.08899041193183 600.84 L 203.46862677556817 600.84" stroke-miterlimit="10"/></g><g transform="translate(-6,-14) scale(1,1)"><path fill="none" stroke="#000000" d="M 194.27880859375 611.64 L 181.51517223011365 629" stroke-miterlimit="10"/></g><g transform="translate(-6,-14) scale(1,1)"><path fill="none" stroke="#000000" d="M 194.27880859375 611.64 L 207.04244495738635 629" stroke-miterlimit="10"/></g><g transform="translate(-6,-14) scale(1,1)"><g><path fill="none" stroke="none"/><text fill="#000000" stroke="none" font-family="Arial" font-size="13px" font-style="normal" font-weight="bold" text-decoration="none" x="175.854736328125" y="649.5">Admin</text></g></g><g transform="translate(-6,-14) scale(1,1)"><path fill="#ffffff" stroke="none" d="M 201.95622531960228 193.68 C 201.95622531960228 188.886167936 205.84206764454774 185 210.635498046875 185 C 215.42892844920226 185 219.31477077414772 188.886167936 219.31477077414772 193.68 C 219.31477077414772 198.47383206400002 215.42892844920226 202.36 210.635498046875 202.36 C 205.84206764454774 202.36 201.95622531960228 198.47383206400002 201.95622531960228 193.68 Z"/></g><g transform="translate(-6,-14) scale(1,1)"><path fill="none" stroke="#000000" d="M 201.95622531960228 193.68 C 201.95622531960228 188.886167936 205.84206764454774 185 210.635498046875 185 C 215.42892844920226 185 219.31477077414772 188.886167936 219.31477077414772 193.68 C 219.31477077414772 198.47383206400002 215.42892844920226 202.36 210.635498046875 202.36 C 205.84206764454774 202.36 201.95622531960228 198.47383206400002 201.95622531960228 193.68 Z" stroke-miterlimit="10"/></g><g transform="translate(-6,-14) scale(1,1)"><path fill="none" stroke="#000000" d="M 210.635498046875 202.36 L 210.635498046875 219.64" stroke-miterlimit="10"/></g><g transform="translate(-6,-14) scale(1,1)"><path fill="none" stroke="#000000" d="M 201.44567986505683 208.84 L 219.82531622869317 208.84" stroke-miterlimit="10"/></g><g transform="translate(-6,-14) scale(1,1)"><path fill="none" stroke="#000000" d="M 210.635498046875 219.64 L 197.87186168323865 237" stroke-miterlimit="10"/></g><g transform="translate(-6,-14) scale(1,1)"><path fill="none" stroke="#000000" d="M 210.635498046875 219.64 L 223.39913441051135 237" stroke-miterlimit="10"/></g><g transform="translate(-6,-14) scale(1,1)"><g><path fill="none" stroke="none"/><text fill="#000000" stroke="none" font-family="Arial" font-size="13px" font-style="normal" font-weight="bold" text-decoration="none" x="185.34326171875" y="257.5">Librarian</text></g></g><g transform="translate(-6,-14) scale(1,1)"><path fill="none" stroke="#000000" d="M 169 575 L 86 440" stroke-miterlimit="10"/></g><g transform="translate(-6,-14) scale(1,1)"><path fill="#FFFFFF" stroke="none" d="M 103.81727165473453 452.9052249411389 L 86 440 L 89.47334154068855 461.72408567792274"/></g><g transform="translate(-6,-14) scale(1,1)"><path fill="none" stroke="#000000" d="M 103.81727165473453 452.9052249411389 L 86 440 L 89.47334154068855 461.72408567792274 L 103.81727165473453 452.9052249411389" stroke-miterlimit="10"/></g><g transform="translate(-6,-14) scale(1,1)"><path fill="none" stroke="#000000" d="M 175 264 L 95 359" stroke-miterlimit="10"/></g><g transform="translate(-6,-14) scale(1,1)"><path fill="#FFFFFF" stroke="none" d="M 101.6524697566289 338.02991067884693 L 95 359 L 114.53209883762565 348.8759141154758"/></g><g transform="translate(-6,-14) scale(1,1)"><path fill="none" stroke="#000000" d="M 101.6524697566289 338.02991067884693 L 95 359 L 114.53209883762565 348.8759141154758 L 101.6524697566289 338.02991067884693" stroke-miterlimit="10"/></g><g transform="translate(-6,-14) scale(1,1)"><path fill="#C0C0C0" stroke="none" d="M 591 102.5 C 591 80.6847504 628.3842192 63 674.5 63 C 720.6157808 63 758 80.6847504 758 102.5 C 758 124.3152496 720.6157808 142 674.5 142 C 628.3842192 142 591 124.3152496 591 102.5 Z" opacity="0.2"/></g><g transform="translate(-6,-14) scale(1,1)"><path fill="#ffffff" stroke="none" d="M 584 95.5 C 584 73.6847504 621.3842192 56 667.5 56 C 713.6157808 56 751 73.6847504 751 95.5 C 751 117.3152496 713.6157808 135 667.5 135 C 621.3842192 135 584 117.3152496 584 95.5 Z"/></g><g transform="translate(-6,-14) scale(1,1)"><path fill="none" stroke="#000000" d="M 584 95.5 C 584 73.6847504 621.3842192 56 667.5 56 C 713.6157808 56 751 73.6847504 751 95.5 C 751 117.3152496 713.6157808 135 667.5 135 C 621.3842192 135 584 117.3152496 584 95.5 Z" stroke-miterlimit="10"/></g><g transform="translate(-6,-14) scale(1,1)"><g><path fill="none" stroke="none"/><text fill="#000000" stroke="none" font-family="Arial" font-size="13px" font-style="normal" font-weight="bold" text-decoration="none" x="651.595947265625" y="102.5">Login</text></g></g><g transform="translate(-6,-14) scale(1,1)"><path fill="none" stroke="#000000" d="M 246 213 L 583 119" stroke-miterlimit="10"/></g><g transform="translate(-6,-14) scale(1,1)"><path fill="none" stroke="#000000" d="M 574.3419942831061 125.7851998501322 L 583 119 L 572.080004620298 117.67572627176692" stroke-miterlimit="10"/></g><g transform="translate(-6,-14) scale(1,1)"><path fill="#C0C0C0" stroke="none" d="M 591 922.5 C 591 902.8938896 625.0263552 887 667 887 C 708.9736448 887 743 902.8938896 743 922.5 C 743 942.1061104 708.9736448 958 667 958 C 625.0263552 958 591 942.1061104 591 922.5 Z" opacity="0.2"/></g><g transform="translate(-6,-14) scale(1,1)"><path fill="#ffffff" stroke="none" d="M 584 915.5 C 584 895.8938896 618.0263552 880 660 880 C 701.9736448 880 736 895.8938896 736 915.5 C 736 935.1061104 701.9736448 951 660 951 C 618.0263552 951 584 935.1061104 584 915.5 Z"/></g><g transform="translate(-6,-14) scale(1,1)"><path fill="none" stroke="#000000" d="M 584 915.5 C 584 895.8938896 618.0263552 880 660 880 C 701.9736448 880 736 895.8938896 736 915.5 C 736 935.1061104 701.9736448 951 660 951 C 618.0263552 951 584 935.1061104 584 915.5 Z" stroke-miterlimit="10"/></g><g transform="translate(-6,-14) scale(1,1)"><g><path fill="none" stroke="none"/><text fill="#000000" stroke="none" font-family="Arial" font-size="13px" font-style="normal" font-weight="bold" text-decoration="none" x="644.095947265625" y="922.5">Login</text></g></g><g transform="translate(-6,-14) scale(1,1)"><path fill="none" stroke="#000000" d="M 222 633 L 604 879" stroke-miterlimit="10"/></g><g transform="translate(-6,-14) scale(1,1)"><path fill="none" stroke="#000000" d="M 593.1766022320276 877.0368238091679 L 604 879 L 597.7348772399887 869.958526845586" stroke-miterlimit="10"/></g><g transform="translate(-6,-14) scale(1,1)"><path fill="#C0C0C0" stroke="none" d="M 583 782.5 C 583 760.6847504 629.1146656 743 686 743 C 742.8853344 743 789 760.6847504 789 782.5 C 789 804.3152496 742.8853344 822 686 822 C 629.1146656 822 583 804.3152496 583 782.5 Z" opacity="0.2"/></g><g transform="translate(-6,-14) scale(1,1)"><path fill="#ffffff" stroke="none" d="M 576 775.5 C 576 753.6847504 622.1146656 736 679 736 C 735.8853344 736 782 753.6847504 782 775.5 C 782 797.3152496 735.8853344 815 679 815 C 622.1146656 815 576 797.3152496 576 775.5 Z"/></g><g transform="translate(-6,-14) scale(1,1)"><path fill="none" stroke="#000000" d="M 576 775.5 C 576 753.6847504 622.1146656 736 679 736 C 735.8853344 736 782 753.6847504 782 775.5 C 782 797.3152496 735.8853344 815 679 815 C 622.1146656 815 576 797.3152496 576 775.5 Z" stroke-miterlimit="10"/></g><g transform="translate(-6,-14) scale(1,1)"><g><path fill="none" stroke="none"/><text fill="#000000" stroke="none" font-family="Arial" font-size="13px" font-style="normal" font-weight="bold" text-decoration="none" x="620.115966796875" y="782.5">Add Library Member</text></g></g><g transform="translate(-6,-14) scale(1,1)"><path fill="none" stroke="#000000" d="M 222 624 L 575 741" stroke-miterlimit="10"/></g><g transform="translate(-6,-14) scale(1,1)"><path fill="none" stroke="#000000" d="M 564.0290157239496 741.7984384852035 L 575 741 L 566.677761354866 733.8069238893614" stroke-miterlimit="10"/></g><g transform="translate(-6,-14) scale(1,1)"><path fill="none" stroke="#000000" d="M 665 879 L 673 816" stroke-miterlimit="10" stroke-dasharray="3"/></g><g transform="translate(-6,-14) scale(1,1)"><path fill="none" stroke="#000000" d="M 675.895765662753 826.6119998693188 L 673 816 L 667.5437984673138 825.5514326064058" stroke-miterlimit="10"/></g><g transform="translate(-6,-14) scale(1,1)"><g><path fill="none" stroke="none"/><text fill="#000000" stroke="none" font-family="Arial" font-size="13px" font-style="normal" font-weight="normal" text-decoration="none" x="613" y="850">«extend»</text></g></g><g transform="translate(-6,-14) scale(1,1)"><path fill="#C0C0C0" stroke="none" d="M 575 218.5 C 575 198.8938896 613.5035072000001 183 661 183 C 708.4964927999999 183 747 198.8938896 747 218.5 C 747 238.1061104 708.4964927999999 254 661 254 C 613.5035072000001 254 575 238.1061104 575 218.5 Z" opacity="0.2"/></g><g transform="translate(-6,-14) scale(1,1)"><path fill="#ffffff" stroke="none" d="M 568 211.5 C 568 191.8938896 606.5035072000001 176 654 176 C 701.4964927999999 176 740 191.8938896 740 211.5 C 740 231.1061104 701.4964927999999 247 654 247 C 606.5035072000001 247 568 231.1061104 568 211.5 Z"/></g><g transform="translate(-6,-14) scale(1,1)"><path fill="none" stroke="#000000" d="M 568 211.5 C 568 191.8938896 606.5035072000001 176 654 176 C 701.4964927999999 176 740 191.8938896 740 211.5 C 740 231.1061104 701.4964927999999 247 654 247 C 606.5035072000001 247 568 231.1061104 568 211.5 Z" stroke-miterlimit="10"/></g><g transform="translate(-6,-14) scale(1,1)"><g><path fill="none" stroke="none"/><text fill="#000000" stroke="none" font-family="Arial" font-size="13px" font-style="normal" font-weight="bold" text-decoration="none" x="604.142333984375" y="218.5">Search for Books</text></g></g><g transform="translate(-6,-14) scale(1,1)"><path fill="none" stroke="#000000" d="M 246 222 L 567 213" stroke-miterlimit="10"/></g><g transform="translate(-6,-14) scale(1,1)"><path fill="none" stroke="#000000" d="M 556.9592947028127 217.4926870729036 L 567 213 L 556.7233397014639 209.07695869146247" stroke-miterlimit="10"/></g><g transform="translate(-6,-14) scale(1,1)"><path fill="#C0C0C0" stroke="none" d="M 535 342.5 C 535 325.1030288 595.8892672 311 671 311 C 746.1107328 311 807 325.1030288 807 342.5 C 807 359.8969712 746.1107328 374 671 374 C 595.8892672 374 535 359.8969712 535 342.5 Z" opacity="0.2"/></g><g transform="translate(-6,-14) scale(1,1)"><path fill="#ffffff" stroke="none" d="M 528 335.5 C 528 318.1030288 588.8892672 304 664 304 C 739.1107328 304 800 318.1030288 800 335.5 C 800 352.8969712 739.1107328 367 664 367 C 588.8892672 367 528 352.8969712 528 335.5 Z"/></g><g transform="translate(-6,-14) scale(1,1)"><path fill="none" stroke="#000000" d="M 528 335.5 C 528 318.1030288 588.8892672 304 664 304 C 739.1107328 304 800 318.1030288 800 335.5 C 800 352.8969712 739.1107328 367 664 367 C 588.8892672 367 528 352.8969712 528 335.5 Z" stroke-miterlimit="10"/></g><g transform="translate(-6,-14) scale(1,1)"><g><path fill="none" stroke="none"/><text fill="#000000" stroke="none" font-family="Arial" font-size="13px" font-style="normal" font-weight="bold" text-decoration="none" x="585.603271484375" y="342.5">Checkout book for member</text></g></g><g transform="translate(-6,-14) scale(1,1)"><path fill="none" stroke="#000000" d="M 246 232 L 534 303" stroke-miterlimit="10"/></g><g transform="translate(-6,-14) scale(1,1)"><path fill="none" stroke="#000000" d="M 523.1251525957775 304.65459781665396 L 534 303 L 525.1403443198129 296.4802989923979" stroke-miterlimit="10"/></g><g transform="translate(-6,-14) scale(1,1)"><path fill="#C0C0C0" stroke="none" d="M 903 286.5 C 903 255.8481936 976.873008 231 1068 231 C 1159.126992 231 1233 255.8481936 1233 286.5 C 1233 317.1518064 1159.126992 342 1068 342 C 976.873008 342 903 317.1518064 903 286.5 Z" opacity="0.2"/></g><g transform="translate(-6,-14) scale(1,1)"><path fill="#ffffff" stroke="none" d="M 896 279.5 C 896 248.8481936 969.873008 224 1061 224 C 1152.126992 224 1226 248.8481936 1226 279.5 C 1226 310.1518064 1152.126992 335 1061 335 C 969.873008 335 896 310.1518064 896 279.5 Z"/></g><g transform="translate(-6,-14) scale(1,1)"><path fill="none" stroke="#000000" d="M 896 279.5 C 896 248.8481936 969.873008 224 1061 224 C 1152.126992 224 1226 248.8481936 1226 279.5 C 1226 310.1518064 1152.126992 335 1061 335 C 969.873008 335 896 310.1518064 896 279.5 Z" stroke-miterlimit="10"/></g><g transform="translate(-6,-14) scale(1,1)"><g><path fill="none" stroke="none"/><text fill="#000000" stroke="none" font-family="Arial" font-size="13px" font-style="normal" font-weight="bold" text-decoration="none" x="963.81103515625" y="286.5">Checkout Entry added to member</text></g></g><g transform="translate(-6,-14) scale(1,1)"><path fill="#C0C0C0" stroke="none" d="M 567 578.5 C 567 563.312168 611.5476624 551 666.5 551 C 721.4523376 551 766 563.312168 766 578.5 C 766 593.687832 721.4523376 606 666.5 606 C 611.5476624 606 567 593.687832 567 578.5 Z" opacity="0.2"/></g><g transform="translate(-6,-14) scale(1,1)"><path fill="#ffffff" stroke="none" d="M 560 571.5 C 560 556.312168 604.5476624 544 659.5 544 C 714.4523376 544 759 556.312168 759 571.5 C 759 586.687832 714.4523376 599 659.5 599 C 604.5476624 599 560 586.687832 560 571.5 Z"/></g><g transform="translate(-6,-14) scale(1,1)"><path fill="none" stroke="#000000" d="M 560 571.5 C 560 556.312168 604.5476624 544 659.5 544 C 714.4523376 544 759 556.312168 759 571.5 C 759 586.687832 714.4523376 599 659.5 599 C 604.5476624 599 560 586.687832 560 571.5 Z" stroke-miterlimit="10"/></g><g transform="translate(-6,-14) scale(1,1)"><g><path fill="none" stroke="none"/><text fill="#000000" stroke="none" font-family="Arial" font-size="13px" font-style="normal" font-weight="bold" text-decoration="none" x="630.95458984375" y="578.5">Add Copy</text></g></g><g transform="translate(-6,-14) scale(1,1)"><path fill="none" stroke="#000000" d="M 222 612 L 559 580" stroke-miterlimit="10"/></g><g transform="translate(-6,-14) scale(1,1)"><path fill="none" stroke="#000000" d="M 549.2807606149606 585.1513479572146 L 559 580 L 548.4849068500654 576.7700129956612" stroke-miterlimit="10"/></g><g transform="translate(-6,-14) scale(1,1)"><path fill="#C0C0C0" stroke="none" d="M 583 502.5 C 583 489.5213072 620.3842192 479 666.5 479 C 712.6157808 479 750 489.5213072 750 502.5 C 750 515.4786928 712.6157808 526 666.5 526 C 620.3842192 526 583 515.4786928 583 502.5 Z" opacity="0.2"/></g><g transform="translate(-6,-14) scale(1,1)"><path fill="#ffffff" stroke="none" d="M 576 495.5 C 576 482.5213072 613.3842192 472 659.5 472 C 705.6157808 472 743 482.5213072 743 495.5 C 743 508.4786928 705.6157808 519 659.5 519 C 613.3842192 519 576 508.4786928 576 495.5 Z"/></g><g transform="translate(-6,-14) scale(1,1)"><path fill="none" stroke="#000000" d="M 576 495.5 C 576 482.5213072 613.3842192 472 659.5 472 C 705.6157808 472 743 482.5213072 743 495.5 C 743 508.4786928 705.6157808 519 659.5 519 C 613.3842192 519 576 508.4786928 576 495.5 Z" stroke-miterlimit="10"/></g><g transform="translate(-6,-14) scale(1,1)"><g><path fill="none" stroke="none"/><text fill="#000000" stroke="none" font-family="Arial" font-size="13px" font-style="normal" font-weight="bold" text-decoration="none" x="632.03369140625" y="502.5">Add book</text></g></g><g transform="translate(-6,-14) scale(1,1)"><path fill="none" stroke="#000000" d="M 222 608 L 575 517" stroke-miterlimit="10"/></g><g transform="translate(-6,-14) scale(1,1)"><path fill="none" stroke="#000000" d="M 566.2098781617044 523.6131503890293 L 575 517 L 564.1082417555962 515.4606487257743" stroke-miterlimit="10"/></g><g transform="translate(-6,-14) scale(1,1)"><path fill="none" stroke="#000000" d="M 801 316 L 895 302" stroke-miterlimit="10" stroke-dasharray="3"/></g><g transform="translate(-6,-14) scale(1,1)"><path fill="none" stroke="#000000" d="M 885.5683076633316 307.66066954223874 L 895 302 L 884.3280885713034 299.3334842100497" stroke-miterlimit="10"/></g><g transform="translate(-6,-14) scale(1,1)"><g><path fill="none" stroke="none"/><text fill="#000000" stroke="none" font-family="Arial" font-size="13px" font-style="normal" font-weight="normal" text-decoration="none" x="816" y="286">«include»</text></g></g><g transform="translate(-6,-14) scale(1,1)"><path fill="#C0C0C0" stroke="none" d="M 919 450.5 C 919 422.0573328 974.2928272 399 1042.5 399 C 1110.7071728 399 1166 422.0573328 1166 450.5 C 1166 478.9426672 1110.7071728 502 1042.5 502 C 974.2928272 502 919 478.9426672 919 450.5 Z" opacity="0.2"/></g><g transform="translate(-6,-14) scale(1,1)"><path fill="#ffffff" stroke="none" d="M 912 443.5 C 912 415.0573328 967.2928272 392 1035.5 392 C 1103.7071728 392 1159 415.0573328 1159 443.5 C 1159 471.9426672 1103.7071728 495 1035.5 495 C 967.2928272 495 912 471.9426672 912 443.5 Z"/></g><g transform="translate(-6,-14) scale(1,1)"><path fill="none" stroke="#000000" d="M 912 443.5 C 912 415.0573328 967.2928272 392 1035.5 392 C 1103.7071728 392 1159 415.0573328 1159 443.5 C 1159 471.9426672 1103.7071728 495 1035.5 495 C 967.2928272 495 912 471.9426672 912 443.5 Z" stroke-miterlimit="10"/></g><g transform="translate(-6,-14) scale(1,1)"><g><path fill="none" stroke="none"/><text fill="#000000" stroke="none" font-family="Arial" font-size="13px" font-style="normal" font-weight="bold" text-decoration="none" x="964.3173828125" y="450.5">Making copy unavailable</text></g></g><g transform="translate(-6,-14) scale(1,1)"><path fill="none" stroke="#000000" d="M 777 368 L 911 407" stroke-miterlimit="10" stroke-dasharray="3"/></g><g transform="translate(-6,-14) scale(1,1)"><path fill="none" stroke="#000000" d="M 900.065854308577 408.20185606406704 L 911 407 L 902.4185508622011 400.1182320080251" stroke-miterlimit="10"/></g><g transform="translate(-6,-14) scale(1,1)"><g><path fill="none" stroke="none"/><text fill="#000000" stroke="none" font-family="Arial" font-size="13px" font-style="normal" font-weight="normal" text-decoration="none" x="825" y="365">«include»</text></g></g><g transform="translate(-6,-14) scale(1,1)"><path fill="#C0C0C0" stroke="none" d="M 207 382.5 C 207 369.5213072 243.936504 359 289.5 359 C 335.063496 359 372 369.5213072 372 382.5 C 372 395.4786928 335.063496 406 289.5 406 C 243.936504 406 207 395.4786928 207 382.5 Z" opacity="0.2"/></g><g transform="translate(-6,-14) scale(1,1)"><path fill="#ffffff" stroke="none" d="M 200 375.5 C 200 362.5213072 236.936504 352 282.5 352 C 328.063496 352 365 362.5213072 365 375.5 C 365 388.4786928 328.063496 399 282.5 399 C 236.936504 399 200 388.4786928 200 375.5 Z"/></g><g transform="translate(-6,-14) scale(1,1)"><path fill="none" stroke="#000000" d="M 200 375.5 C 200 362.5213072 236.936504 352 282.5 352 C 328.063496 352 365 362.5213072 365 375.5 C 365 388.4786928 328.063496 399 282.5 399 C 236.936504 399 200 388.4786928 200 375.5 Z" stroke-miterlimit="10"/></g><g transform="translate(-6,-14) scale(1,1)"><g><path fill="none" stroke="none"/><text fill="#000000" stroke="none" font-family="Arial" font-size="13px" font-style="normal" font-weight="bold" text-decoration="none" x="236.2509765625" y="382.5">have admin role</text></g></g><g transform="translate(-6,-14) scale(1,1)"><path fill="none" stroke="#000000" d="M 229 264 L 271 351" stroke-miterlimit="10"/></g><g transform="translate(-6,-14) scale(1,1)"><path fill="none" stroke="#000000" d="M 262.79089849581595 343.6780704391531 L 271 351 L 270.3726747027879 340.0179026150977" stroke-miterlimit="10"/></g><g transform="translate(-6,-14) scale(1,1)"><path fill="none" stroke="#000000" d="M 361 400 L 584 471" stroke-miterlimit="10" stroke-dasharray="3"/></g><g transform="translate(-6,-14) scale(1,1)"><path fill="none" stroke="#000000" d="M 573.0392120168242 471.92796917398636 L 584 471 L 575.5933791942905 463.9057257856062" stroke-miterlimit="10"/></g><g transform="translate(-6,-14) scale(1,1)"><g><path fill="none" stroke="none"/><text fill="#000000" stroke="none" font-family="Arial" font-size="13px" font-style="normal" font-weight="normal" text-decoration="none" x="454" y="413">«include»</text></g></g><g transform="translate(-6,-14) scale(1,1)"><path fill="none" stroke="#000000" d="M 330 400 L 605 543" stroke-miterlimit="10" stroke-dasharray="3"/></g><g transform="translate(-6,-14) scale(1,1)"><path fill="none" stroke="#000000" d="M 594.0414315841505 542.0461770210651 L 605 543 L 597.9255766575125 534.5766672645997" stroke-miterlimit="10"/></g><g transform="translate(-6,-14) scale(1,1)"><g><path fill="none" stroke="none"/><text fill="#000000" stroke="none" font-family="Arial" font-size="13px" font-style="normal" font-weight="normal" text-decoration="none" x="453" y="451">«include»</text></g></g><g transform="translate(-6,-14) scale(1,1)"><path fill="none" stroke="#000000" d="M 307 400 L 639 735" stroke-miterlimit="10" stroke-dasharray="3"/></g><g transform="translate(-6,-14) scale(1,1)"><path fill="none" stroke="#000000" d="M 628.8563611067939 730.7448161021837 L 639 735 L 634.836233542048 724.8184947633646" stroke-miterlimit="10"/></g><g transform="translate(-6,-14) scale(1,1)"><g><path fill="none" stroke="none"/><text fill="#000000" stroke="none" font-family="Arial" font-size="13px" font-style="normal" font-weight="normal" text-decoration="none" x="467" y="552">«include»</text></g></g><g transform="translate(-6,-14) scale(1,1)"><path fill="#C0C0C0" stroke="none" d="M 151 506.5 C 151 495.7304464 194.8760896 487 249 487 C 303.1239104 487 347 495.7304464 347 506.5 C 347 517.2695536 303.1239104 526 249 526 C 194.8760896 526 151 517.2695536 151 506.5 Z" opacity="0.2"/></g><g transform="translate(-6,-14) scale(1,1)"><path fill="#ffffff" stroke="none" d="M 144 499.5 C 144 488.7304464 187.8760896 480 242 480 C 296.1239104 480 340 488.7304464 340 499.5 C 340 510.2695536 296.1239104 519 242 519 C 187.8760896 519 144 510.2695536 144 499.5 Z"/></g><g transform="translate(-6,-14) scale(1,1)"><path fill="none" stroke="#000000" d="M 144 499.5 C 144 488.7304464 187.8760896 480 242 480 C 296.1239104 480 340 488.7304464 340 499.5 C 340 510.2695536 296.1239104 519 242 519 C 187.8760896 519 144 510.2695536 144 499.5 Z" stroke-miterlimit="10"/></g><g transform="translate(-6,-14) scale(1,1)"><g><path fill="none" stroke="none"/><text fill="#000000" stroke="none" font-family="Arial" font-size="13px" font-style="normal" font-weight="bold" text-decoration="none" x="185.6328125" y="506.5">have Librarian Role</text></g></g><g transform="translate(-6,-14) scale(1,1)"><path fill="none" stroke="#000000" d="M 211 575 L 233 520" stroke-miterlimit="10"/></g><g transform="translate(-6,-14) scale(1,1)"><path fill="none" stroke="#000000" d="M 233.1341164273886 530.9991823688811 L 233 520 L 225.31723819473166 527.8724310758183" stroke-miterlimit="10"/></g><g transform="translate(-6,-14) scale(1,1)"><path fill="none" stroke="#000000" d="M 271 479 L 601 248" stroke-miterlimit="10" stroke-dasharray="3"/></g><g transform="translate(-6,-14) scale(1,1)"><path fill="none" stroke="#000000" d="M 595.088412279782 257.2764826645754 L 601 248 L 590.260412437774 250.37934003313543" stroke-miterlimit="10"/></g><g transform="translate(-6,-14) scale(1,1)"><g><path fill="none" stroke="none"/><text fill="#000000" stroke="none" font-family="Arial" font-size="13px" font-style="normal" font-weight="normal" text-decoration="none" x="391" y="345">«include»</text></g></g><g transform="translate(-6,-14) scale(1,1)"><path fill="none" stroke="#000000" d="M 293 479 L 579 368" stroke-miterlimit="10" stroke-dasharray="3"/></g><g transform="translate(-6,-14) scale(1,1)"><path fill="none" stroke="#000000" d="M 571.0489300070352 375.6013476415024 L 579 368 L 568.002780026823 367.7527089537484" stroke-miterlimit="10"/></g><g transform="translate(-6,-14) scale(1,1)"><g><path fill="none" stroke="none"/><text fill="#000000" stroke="none" font-family="Arial" font-size="13px" font-style="normal" font-weight="normal" text-decoration="none" x="398" y="401">«include»</text></g></g><g transform="translate(-6,-14) scale(1,1)"><path fill="#C0C0C0" stroke="none" d="M 567 674.5 C 567 654.8938896 612.890808 639 669.5 639 C 726.109192 639 772 654.8938896 772 674.5 C 772 694.1061104 726.109192 710 669.5 710 C 612.890808 710 567 694.1061104 567 674.5 Z" opacity="0.2"/></g><g transform="translate(-6,-14) scale(1,1)"><path fill="#ffffff" stroke="none" d="M 560 667.5 C 560 647.8938896 605.890808 632 662.5 632 C 719.109192 632 765 647.8938896 765 667.5 C 765 687.1061104 719.109192 703 662.5 703 C 605.890808 703 560 687.1061104 560 667.5 Z"/></g><g transform="translate(-6,-14) scale(1,1)"><path fill="none" stroke="#000000" d="M 560 667.5 C 560 647.8938896 605.890808 632 662.5 632 C 719.109192 632 765 647.8938896 765 667.5 C 765 687.1061104 719.109192 703 662.5 703 C 605.890808 703 560 687.1061104 560 667.5 Z" stroke-miterlimit="10"/></g><g transform="translate(-6,-14) scale(1,1)"><g><path fill="none" stroke="none"/><text fill="#000000" stroke="none" font-family="Arial" font-size="13px" font-style="normal" font-weight="bold" text-decoration="none" x="603.98095703125" y="674.5">Edit Library Member</text></g></g><g transform="translate(-6,-14) scale(1,1)"><path fill="none" stroke="#000000" d="M 222 618 L 559 656" stroke-miterlimit="10"/></g><g transform="translate(-6,-14) scale(1,1)"><path fill="none" stroke="#000000" d="M 548.4296487794958 659.0442856428374 L 559 656 L 549.3729979505388 650.6782679943772" stroke-miterlimit="10"/></g></g></svg>